<svg xmlns="http://www.w3.org/2000/svg" xlink="http://www.w3.org/1999/xlink" width="0" height="0" style="display:none;"><symbol viewBox="0 0 24 24" id="lock-unlock-fill"><path fill="none" d="M0 0h24v24H0z"/><path d="M7 10h13a1 1 0 0 1 1 1v10a1 1 0 0 1-1 1H4a1 1 0 0 1-1-1V11a1 1 0 0 1 1-1h1V9a7 7 0 0 1 13.262-3.131l-1.789.894A5 5 0 0 0 7 9v1zm3 5v2h4v-2h-4z"/></symbol><symbol viewBox="0 0 24 24" id="lock-fill"><path fill="none" d="M0 0h24v24H0z"/><path d="M19 10h1a1 1 0 0 1 1 1v10a1 1 0 0 1-1 1H4a1 1 0 0 1-1-1V11a1 1 0 0 1 1-1h1V9a7 7 0 1 1 14 0v1zm-2 0V9A5 5 0 0 0 7 9v1h10zm-6 4v4h2v-4h-2z"/></symbol><symbol viewBox="0 0 24 24" id="grid-fill"><path fill="none" d="M0 0h24v24H0z"/><path d="M14 10v4h-4v-4h4zm2 0h5v4h-5v-4zm-2 11h-4v-5h4v5zm2 0v-5h5v4a1 1 0 0 1-1 1h-4zM14 3v5h-4V3h4zm2 0h4a1 1 0 0 1 1 1v4h-5V3zm-8 7v4H3v-4h5zm0 11H4a1 1 0 0 1-1-1v-4h5v5zM8 3v5H3V4a1 1 0 0 1 1-1h4z"/></symbol><symbol viewBox="0 0 24 24" id="arrow-left-circle-line"><path fill="none" d="M0 0h24v24H0z"/><path d="M12 2c5.52 0 10 4.48 10 10s-4.48 10-10 10S2 17.52 2 12 6.48 2 12 2zm0 18c4.42 0 8-3.58 8-8s-3.58-8-8-8-8 3.58-8 8 3.58 8 8 8zm0-9h4v2h-4v3l-4-4 4-4v3z"/></symbol><symbol viewBox="0 0 24 24" id="close-circle-line"><path fill="none" d="M0 0h24v24H0z"/><path d="M12 22C6.477 22 2 17.523 2 12S6.477 2 12 2s10 4.477 10 10-4.477 10-10 10zm0-2a8 8 0 1 0 0-16 8 8 0 0 0 0 16zm0-9.414l2.828-2.829 1.415 1.415L13.414 12l2.829 2.828-1.415 1.415L12 13.414l-2.828 2.829-1.415-1.415L10.586 12 7.757 9.172l1.415-1.415L12 10.586z"/></symbol></svg>